<mxfile host="app.diagrams.net" modified="2023-05-18T16:49:14.441Z" agent="Mozilla/5.0 (Windows NT 10.0; Win64; x64; rv:109.0) Gecko/20100101 Firefox/113.0" etag="jlxSYiO_kEC3z3JamR55" version="21.3.2" type="device">
  <diagram name="PÃ¡gina-1" id="FW4REXXdFV8d2buFBh6q">
    <mxGraphModel dx="1274" dy="677" grid="1" gridSize="10" guides="1" tooltips="1" connect="1" arrows="1" fold="1" page="1" pageScale="1" pageWidth="827" pageHeight="1169" math="0" shadow="0">
      <root>
        <mxCell id="0" />
        <mxCell id="1" parent="0" />
        <mxCell id="sfBzCyyGrr6QmmVgu2n5-1" value="MIT" style="rounded=1;whiteSpace=wrap;html=1;fontSize=16;fillColor=#d5e8d4;strokeColor=#82b366;" vertex="1" parent="1">
          <mxGeometry x="224" y="400" width="380" height="30" as="geometry" />
        </mxCell>
        <mxCell id="sfBzCyyGrr6QmmVgu2n5-3" value="ISC (Internet Systems Consortium)" style="rounded=1;whiteSpace=wrap;html=1;fontSize=16;fillColor=#d5e8d4;strokeColor=#82b366;" vertex="1" parent="1">
          <mxGeometry x="224" y="370" width="380" height="30" as="geometry" />
        </mxCell>
        <mxCell id="sfBzCyyGrr6QmmVgu2n5-5" value="PSF (&lt;font style=&quot;font-size: 13px;&quot;&gt;Python Software Foundation License&lt;/font&gt;)" style="rounded=1;whiteSpace=wrap;html=1;fontSize=16;fillColor=#ffe6cc;strokeColor=#d79b00;" vertex="1" parent="1">
          <mxGeometry x="254" y="340" width="320" height="30" as="geometry" />
        </mxCell>
        <mxCell id="sfBzCyyGrr6QmmVgu2n5-6" value="&lt;em style=&quot;font-size: 16px;&quot;&gt;BSD 3-clause&lt;/em&gt;" style="rounded=1;whiteSpace=wrap;html=1;fontSize=16;fillColor=#f8cecc;strokeColor=#b85450;" vertex="1" parent="1">
          <mxGeometry x="282" y="310" width="263" height="30" as="geometry" />
        </mxCell>
        <mxCell id="sfBzCyyGrr6QmmVgu2n5-8" value="" style="endArrow=classic;startArrow=classic;html=1;rounded=0;" edge="1" parent="1">
          <mxGeometry width="50" height="50" relative="1" as="geometry">
            <mxPoint x="230" y="450" as="sourcePoint" />
            <mxPoint x="600" y="450" as="targetPoint" />
          </mxGeometry>
        </mxCell>
        <mxCell id="sfBzCyyGrr6QmmVgu2n5-9" value="Permisividad" style="text;html=1;align=center;verticalAlign=middle;resizable=0;points=[];autosize=1;strokeColor=none;fillColor=none;fontStyle=1;fontSize=15;" vertex="1" parent="1">
          <mxGeometry x="354" y="450" width="120" height="30" as="geometry" />
        </mxCell>
      </root>
    </mxGraphModel>
  </diagram>
</mxfile>
